<svg width="58" height="52" viewBox="0 0 58 52" fill="none" xmlns="http://www.w3.org/2000/svg">
<path d="M53.1372 9.51074C54.6341 9.51074 55.859 10.7375 55.859 12.2369V47.2317C55.859 48.731 54.6341 49.9578 53.1372 49.9578H4.2218C2.72481 49.9578 1.5 48.731 1.5 47.2317V12.2369C1.5 10.7375 2.72481 9.51074 4.2218 9.51074H41.6103" stroke="#70269E" stroke-width="3" stroke-miterlimit="10"/>
<path d="M49.0935 14.7699H49.9146C50.4657 14.7699 50.9194 15.222 50.9194 15.7763V43.8489C50.9194 44.4009 50.468 44.8553 49.9146 44.8553H14.6264C14.0752 44.8553 13.6216 44.4032 13.6216 43.8489V15.7763C13.6216 15.2243 14.0729 14.7699 14.6264 14.7699H35.5344" stroke="#70269E" stroke-width="3" stroke-miterlimit="10"/>
<path d="M7.59962 31.747C8.70823 31.747 9.60695 30.8469 9.60695 29.7365C9.60695 28.6261 8.70823 27.726 7.59962 27.726C6.491 27.726 5.59229 28.6261 5.59229 29.7365C5.59229 30.8469 6.491 31.747 7.59962 31.747Z" stroke="#70269E" stroke-width="3" stroke-miterlimit="10"/>
<path d="M6.28613 15.6991H8.68132" stroke="#70269E" stroke-width="3" stroke-miterlimit="10" stroke-linecap="round"/>
<path d="M6.28613 20.1063H8.68132" stroke="#70269E" stroke-width="3" stroke-miterlimit="10" stroke-linecap="round"/>
<path d="M6.28613 24.516H8.68132" stroke="#70269E" stroke-width="3" stroke-miterlimit="10" stroke-linecap="round"/>
<path d="M6.28613 34.9548H8.68132" stroke="#70269E" stroke-width="3" stroke-miterlimit="10" stroke-linecap="round"/>
<path d="M6.28613 39.3644H8.68132" stroke="#70269E" stroke-width="3" stroke-miterlimit="10" stroke-linecap="round"/>
<path d="M6.28613 43.7717H8.68132" stroke="#70269E" stroke-width="3" stroke-miterlimit="10" stroke-linecap="round"/>
<path d="M25.822 23.2006L23.5062 31.7471C23.5062 31.7471 23.1978 32.6353 23.5062 33.41C23.8147 34.1847 25.822 33.8735 25.822 33.8735L33.7742 31.7471L54.0812 8.73832C54.0812 8.73832 54.9045 8.07041 51.8425 5.25793C49.3044 2.92707 49.2182 2.93843 47.6736 4.25152C46.129 5.56462 25.822 23.1983 25.822 23.1983V23.2006Z" stroke="#70269E" stroke-width="3" stroke-miterlimit="10"/>
<path d="M49.7168 3.51543C49.7168 3.51543 52.2209 0.0850178 54.4595 2.17507C56.6982 4.26285 55.3623 5.95534 53.8199 7.46381" stroke="#70269E" stroke-width="3" stroke-miterlimit="10"/>
<path d="M44.981 6.57788L50.8306 12.4232" stroke="#70269E" stroke-width="3" stroke-miterlimit="10"/>
<path d="M39.7595 17.4097L33.8804 23.2391" stroke="#70269E" stroke-width="3" stroke-miterlimit="10" stroke-linecap="round"/>
<path d="M25.8218 23.2006L31.6805 28.9232" stroke="#70269E" stroke-width="3" stroke-miterlimit="10" stroke-linecap="round"/>
<path d="M22.3472 35.0048L23.3678 33.9348" stroke="#70269E" stroke-width="3" stroke-miterlimit="10" stroke-linecap="round"/>
</svg>
