<svg width="20" height="12" viewBox="0 0 20 12" fill="none" xmlns="http://www.w3.org/2000/svg">
<path d="M19.71 5.29002L14.71 0.290017C14.6166 0.197335 14.5057 0.12401 14.3839 0.0742455C14.2621 0.0244809 14.1316 -0.000744179 14 1.67143e-05H3C2.20435 1.67143e-05 1.44129 0.316087 0.87868 0.878696C0.316071 1.44131 0 2.20437 0 3.00002V9.00002C0 9.79567 0.316071 10.5587 0.87868 11.1213C1.44129 11.6839 2.20435 12 3 12H14C14.1316 12.0008 14.2621 11.9756 14.3839 11.9258C14.5057 11.876 14.6166 11.8027 14.71 11.71L19.71 6.71002C19.8037 6.61705 19.8781 6.50645 19.9289 6.38459C19.9797 6.26273 20.0058 6.13203 20.0058 6.00002C20.0058 5.868 19.9797 5.7373 19.9289 5.61544C19.8781 5.49358 19.8037 5.38298 19.71 5.29002ZM13.59 10H3C2.73478 10 2.48043 9.89466 2.29289 9.70712C2.10536 9.51959 2 9.26523 2 9.00002V3.00002C2 2.7348 2.10536 2.48045 2.29289 2.29291C2.48043 2.10537 2.73478 2.00002 3 2.00002H13.59L17.59 6.00002L13.59 10Z" fill="#70269E"/>
</svg>
