<svg width="63" height="63" viewBox="0 0 63 63" fill="none" xmlns="http://www.w3.org/2000/svg">
<path d="M32.6971 25.1549C28.0308 22.9977 24.4728 23.2115 23.0375 23.8577C21.4629 24.5664 19.6983 25.3639 17.7245 31.0812C17.0298 33.0943 16.0417 33.0534 15.5705 33.3777C13.2121 35.0017 11.26 34.2329 8.53377 35.1001C6.08402 35.8785 4.21846 37.5889 3.22077 38.9749C-0.517559 44.1614 2.95873 51.6347 3.22077 52.1776C5.55753 57.0253 9.731 59.1129 11.1205 59.7831C12.0557 60.2347 19.8738 62.6802 24.0472 59.3531C25.6892 58.0439 26.7398 57.2607 27.925 52.1776C28.764 48.5839 28.9708 47.7239 30.2233 46.5804C32.2908 44.6947 34.2886 45.8405 36.6854 43.8539C38.5726 42.2924 39.128 40.0992 39.4141 38.9749C40.4887 34.747 38.6616 31.2085 38.1207 30.2452" stroke="#70269E" stroke-width="3" stroke-miterlimit="10"/>
<path d="M25.9185 41.6547C28.3558 41.6547 30.3316 39.5471 30.3316 36.9473C30.3316 34.3475 28.3558 32.24 25.9185 32.24C23.4812 32.24 21.5054 34.3475 21.5054 36.9473C21.5054 39.5471 23.4812 41.6547 25.9185 41.6547Z" stroke="#70269E" stroke-width="3" stroke-miterlimit="10"/>
<path d="M5.81393 46.362C5.81393 46.362 4.40461 40.7581 9.14866 39.301" stroke="#70269E" stroke-width="3" stroke-miterlimit="10" stroke-linecap="round"/>
<path d="M9.14893 46.3621L16.2099 54.0115" stroke="#70269E" stroke-width="3" stroke-miterlimit="10" stroke-linecap="round"/>
<path d="M21.5055 38.7126L11.5024 48.7157" stroke="#70269E" stroke-width="3" stroke-miterlimit="10"/>
<path d="M24.4479 41.6547L13.8564 51.6577" stroke="#70269E" stroke-width="3" stroke-miterlimit="10"/>
<path d="M46.2191 12.8223L25.6245 32.24" stroke="#70269E" stroke-width="3" stroke-miterlimit="10"/>
<path d="M50.3382 16.9412L30.332 37.5357" stroke="#70269E" stroke-width="3" stroke-miterlimit="10"/>
<path d="M52.9756 2.82403C52.9756 2.82403 59.1047 3.49569 59.7528 10.5903L51.4462 16.8134C51.1874 17.0084 50.8284 16.9771 50.6022 16.7412L46.4734 12.4295C46.1563 12.0901 46.133 11.5581 46.4198 11.1897L52.9732 2.81921L52.9756 2.82403Z" stroke="#70269E" stroke-width="3" stroke-miterlimit="10"/>
<path d="M50.9263 2.23083L52.1031 3.40767" stroke="#70269E" stroke-width="3" stroke-miterlimit="10" stroke-linecap="round"/>
<path d="M47.9844 4.58447L49.7496 6.34972" stroke="#70269E" stroke-width="3" stroke-miterlimit="10" stroke-linecap="round"/>
<path d="M46.2192 8.11499L47.3961 9.88024" stroke="#70269E" stroke-width="3" stroke-miterlimit="10" stroke-linecap="round"/>
<path d="M59.7529 11.057L60.9298 12.2338" stroke="#70269E" stroke-width="3" stroke-miterlimit="10" stroke-linecap="round"/>
<path d="M56.8105 13.4108L57.9874 14.5876" stroke="#70269E" stroke-width="3" stroke-miterlimit="10" stroke-linecap="round"/>
<path d="M53.8687 15.7644L55.0455 16.9412" stroke="#70269E" stroke-width="3" stroke-miterlimit="10" stroke-linecap="round"/>
</svg>
