<svg width="48" height="58" viewBox="0 0 48 58" fill="none" xmlns="http://www.w3.org/2000/svg">
<path d="M38.5157 18.6197L34.3876 44.5573C33.5399 44.3147 32.7057 43.9867 31.1458 43.7059C29.2039 43.3577 27.2122 42.9983 25.8355 44.0496C23.7059 45.6783 24.6644 49.5018 24.8453 50.0477C25.4353 51.8359 26.9432 53.1838 26.2695 55.1337C26.0434 55.7874 24.6328 56.8051 20.9885 56.2097C19.0466 55.9289 12.2329 54.7069 7.01973 48.7537C6.33926 47.9787 -0.838425 39.4848 2.28585 28.4502C4.45385 20.7943 10.6097 15.3421 17.5252 13.4214C25.0646 11.3277 31.3086 14.0436 33.1081 14.913C35.2083 15.9284 37.001 17.2022 38.5157 18.6197Z" stroke="#70269E" stroke-width="3" stroke-miterlimit="10"/>
<path d="M44.4347 40.1644C42.823 42.6949 40.1694 44.3974 37.394 44.6127L41.4919 22.1802C43.1993 24.684 44.2825 27.3255 44.8784 29.6229C45.6615 32.6551 46.6903 36.6262 44.4347 40.1644Z" stroke="#70269E" stroke-width="3" stroke-miterlimit="10"/>
<path d="M14.6812 31.1532C16.3847 31.1532 17.7656 29.7722 17.7656 28.0687C17.7656 26.3652 16.3847 24.9843 14.6812 24.9843C12.9776 24.9843 11.5967 26.3652 11.5967 28.0687C11.5967 29.7722 12.9776 31.1532 14.6812 31.1532Z" stroke="#70269E" stroke-width="3" stroke-miterlimit="10"/>
<path d="M26.458 26.6666C28.1615 26.6666 29.5425 25.4112 29.5425 23.8625C29.5425 22.3139 28.1615 21.0585 26.458 21.0585C24.7545 21.0585 23.3735 22.3139 23.3735 23.8625C23.3735 25.4112 24.7545 26.6666 26.458 26.6666Z" stroke="#70269E" stroke-width="3" stroke-miterlimit="10"/>
<path d="M15.8027 42.9302C17.5062 42.9302 18.8872 41.5492 18.8872 39.8457C18.8872 38.1422 17.5062 36.7612 15.8027 36.7612C14.0992 36.7612 12.7183 38.1422 12.7183 39.8457C12.7183 41.5492 14.0992 42.9302 15.8027 42.9302Z" stroke="#70269E" stroke-width="3" stroke-miterlimit="10"/>
<path d="M34.0293 44.6126L38.5158 18.2544" stroke="#70269E" stroke-width="3" stroke-miterlimit="10"/>
<path d="M41.3197 22.1802L37.394 44.6127" stroke="#70269E" stroke-width="3" stroke-miterlimit="10"/>
<path d="M37.394 44.9273L35.296 54.8245C35.296 54.8245 34.7044 56.6838 33.3919 56.3495C32.0794 56.0153 32.3752 54.4903 32.3752 54.4903L34.1526 44.6127C34.1948 44.6236 34.2396 44.6345 34.2818 44.6454" stroke="#70269E" stroke-width="3" stroke-miterlimit="10"/>
<path d="M38.5156 18.6209L39.4125 12.6462L43.0021 13.2057L42.0861 18.3872L41.4172 22.1801" stroke="#70269E" stroke-width="3" stroke-miterlimit="10"/>
<path d="M38.5156 17.6936L41.8805 18.2544" stroke="#70269E" stroke-width="3" stroke-miterlimit="10"/>
<path d="M42.8148 13.2071C42.8148 13.2071 48.0905 9.37983 43.0961 2.55164C43.0961 2.55164 40.2869 6.443 39.335 7.16862C37.8556 8.29941 37.2577 10.8837 39.1108 12.6371" stroke="#70269E" stroke-width="3" stroke-miterlimit="10"/>
</svg>
