<svg width="56" height="48" viewBox="0 0 56 48" fill="none" xmlns="http://www.w3.org/2000/svg">
<path d="M51.3267 1.5H4.28465C2.74673 1.5 1.5 2.73957 1.5 4.26866V43.0899C1.5 44.619 2.74673 45.8586 4.28465 45.8586H51.3267C52.8646 45.8586 54.1113 44.619 54.1113 43.0899V4.26866C54.1113 2.73957 52.8646 1.5 51.3267 1.5Z" stroke="#70269E" stroke-width="3" stroke-miterlimit="10"/>
<path d="M19.0445 1.5H12.8398C12.5591 1.5 12.3315 1.72958 12.3315 2.01278V26.7771C12.3315 27.0603 12.5591 27.2899 12.8398 27.2899H19.0445C19.3252 27.2899 19.5527 27.0603 19.5527 26.7771V2.01278C19.5527 1.72958 19.3252 1.5 19.0445 1.5Z" stroke="#70269E" stroke-width="3" stroke-miterlimit="10"/>
<path d="M30.9082 1.5H24.7036C24.4229 1.5 24.1953 1.72958 24.1953 2.01278V26.7771C24.1953 27.0603 24.4229 27.2899 24.7036 27.2899H30.9082C31.1889 27.2899 31.4165 27.0603 31.4165 26.7771V2.01278C31.4165 1.72958 31.1889 1.5 30.9082 1.5Z" stroke="#70269E" stroke-width="3" stroke-miterlimit="10"/>
<path d="M42.7715 1.5H36.5668C36.2861 1.5 36.0586 1.72958 36.0586 2.01278V26.7771C36.0586 27.0603 36.2861 27.2899 36.5668 27.2899H42.7715C43.0522 27.2899 43.2798 27.0603 43.2798 26.7771V2.01278C43.2798 1.72958 43.0522 1.5 42.7715 1.5Z" stroke="#70269E" stroke-width="3" stroke-miterlimit="10"/>
<path d="M15.9424 27.2898V45.8585" stroke="#70269E" stroke-width="3" stroke-miterlimit="10"/>
<path d="M27.8057 27.2898V45.8585" stroke="#70269E" stroke-width="3" stroke-miterlimit="10"/>
<path d="M39.6689 27.2898V45.8585" stroke="#70269E" stroke-width="3" stroke-miterlimit="10"/>
</svg>
