<svg width="53" height="57" viewBox="0 0 53 57" fill="none" xmlns="http://www.w3.org/2000/svg">
<path d="M16.9388 14.2752L1.50673 1.53142C1.48935 1.51846 1.5089 1.49252 1.52844 1.50549L18.3374 13.389" stroke="#70269E" stroke-width="3" stroke-miterlimit="10" stroke-linecap="round"/>
<path d="M29.8488 22.4036L44.8193 32.9459C44.8193 32.9459 46.7867 34.4574 46.7867 35.6607C46.7867 36.1124 46.1324 36.9538 45.2988 36.9174C43.4868 36.8404 42.2062 35.9797 40.8089 34.83L28.2075 24.4632" stroke="#70269E" stroke-width="3" stroke-miterlimit="10" stroke-linecap="round"/>
<path d="M44.4723 34.5307C44.57 34.3968 43.9513 33.7791 43.0904 33.1511C42.2295 32.5231 41.4524 32.1226 41.3546 32.2565C41.2569 32.3904 41.8756 33.0081 42.7365 33.6361C43.5974 34.2642 44.3746 34.6647 44.4723 34.5307Z" stroke="#70269E" stroke-width="3" stroke-miterlimit="10" stroke-linecap="round"/>
<path d="M23.2724 10.2109C24.7153 10.2109 25.8851 8.91119 25.8851 7.30791C25.8851 5.70463 24.7153 4.40491 23.2724 4.40491C21.8294 4.40491 20.6597 5.70463 20.6597 7.30791C20.6597 8.91119 21.8294 10.2109 23.2724 10.2109Z" stroke="#70269E" stroke-width="3" stroke-miterlimit="10"/>
<path d="M27.9631 49.1112H19.1625C18.7068 49.1112 18.3374 49.4768 18.3374 49.9277V53.5201C18.3374 53.971 18.7068 54.3366 19.1625 54.3366H27.9631C28.4188 54.3366 28.7882 53.971 28.7882 53.5201V49.9277C28.7882 49.4768 28.4188 49.1112 27.9631 49.1112Z" stroke="#70269E" stroke-width="3" stroke-miterlimit="10"/>
<path d="M23.563 35.7573V49.1111" stroke="#70269E" stroke-width="3" stroke-miterlimit="10"/>
<path d="M15.355 35.7573H31.0881C31.0881 35.7573 33.0709 33.0524 29.0656 27.1394C25.9757 22.5768 32.2721 21.392 32.2721 21.392C32.2721 21.392 31.7593 12.1011 23.2204 12.549C14.6816 12.9969 14.1732 19.6468 14.2854 21.6744C14.2854 21.6744 18.3788 21.3434 18.3018 24.9464C18.2798 25.9944 17.8352 26.9828 17.1442 27.7682C16.1913 28.8493 14.73 31.2984 15.355 35.7573Z" stroke="#70269E" stroke-width="3" stroke-miterlimit="10"/>
<path d="M23.563 10.2109V12.5333" stroke="#70269E" stroke-width="3" stroke-miterlimit="10"/>
<path d="M50.8509 25.8872C49.7023 26.1739 46.4244 27.1491 44.1947 30.2355C41.4006 34.1038 42.1787 38.6237 42.4446 39.8617C43.5191 44.8377 46.9605 45.9194 46.4701 48.7343C45.9732 51.5926 41.7254 54.49 37.8284 54.2793C29.8493 53.8515 29.3087 40.7197 19.2416 37.7527C13.9302 36.1889 6.12756 37.5008 3.88267 42.5224C2.20882 46.2691 3.89357 51.4884 7.99975 55.4978" stroke="#70269E" stroke-width="3" stroke-miterlimit="10" stroke-linecap="round"/>
</svg>
