<svg width="49" height="52" viewBox="0 0 49 52" fill="none" xmlns="http://www.w3.org/2000/svg">
<path d="M44.3121 18.6328H5.17477C3.74797 18.6328 2.59131 19.7841 2.59131 21.2043V47.905C2.59131 49.3252 3.74797 50.4765 5.17477 50.4765H44.3121C45.7389 50.4765 46.8956 49.3252 46.8956 47.905V21.2043C46.8956 19.7841 45.7389 18.6328 44.3121 18.6328Z" stroke="#70269E" stroke-width="3" stroke-miterlimit="10"/>
<path d="M42.6488 1.53163L2.89311 9.19457C1.96164 9.37411 1.35209 10.2748 1.53163 11.2062L2.54514 16.4643C2.72468 17.3958 3.62532 18.0054 4.55679 17.8258L44.3125 10.1629C45.244 9.98334 45.8535 9.08269 45.674 8.15123L44.6605 2.89311C44.4809 1.96164 43.5803 1.35209 42.6488 1.53163Z" stroke="#70269E" stroke-width="3" stroke-miterlimit="10"/>
<path d="M4.66797 8.94128L12.975 15.8638" stroke="#70269E" stroke-width="3" stroke-miterlimit="10"/>
<path d="M15.0518 6.8645L23.3588 14.4793" stroke="#70269E" stroke-width="3" stroke-miterlimit="10"/>
<path d="M24.0508 5.47998L32.3578 12.4025" stroke="#70269E" stroke-width="3" stroke-miterlimit="10"/>
<path d="M33.0503 3.40332L41.3573 10.3259" stroke="#70269E" stroke-width="3" stroke-miterlimit="10"/>
<path d="M46.8952 26.9399H3.2832" stroke="#70269E" stroke-width="3" stroke-miterlimit="10"/>
<path d="M14.3594 18.6328L6.74463 26.9399" stroke="#70269E" stroke-width="3" stroke-miterlimit="10"/>
<path d="M24.0508 18.6328L16.436 26.9399" stroke="#70269E" stroke-width="3" stroke-miterlimit="10"/>
<path d="M33.0505 18.6328L26.1279 26.9399" stroke="#70269E" stroke-width="3" stroke-miterlimit="10"/>
<path d="M42.7419 18.6328L35.8193 26.9399" stroke="#70269E" stroke-width="3" stroke-miterlimit="10"/>
</svg>
